<svg width="49" height="39" viewBox="0 0 49 39" fill="none" xmlns="http://www.w3.org/2000/svg">
<path d="M26.1264 30.228H12.4889C11.4431 30.228 10.4587 30.6176 9.72044 31.3559C8.98217 32.1147 8.57202 33.099 8.59253 34.1449C8.59253 36.2777 10.3972 38.0208 12.571 38.0208H22.3735C23.604 38.0208 24.7114 37.18 25.06 35.9906L26.5571 30.8022C26.5981 30.6586 26.5776 30.5151 26.4955 30.392C26.4135 30.2895 26.27 30.228 26.1264 30.228Z" fill="#624DFF"/>
<path d="M44.4597 22.7223H31.4579C30.4121 22.7223 29.4277 23.1119 28.6894 23.8502C27.9512 24.609 27.541 25.5933 27.541 26.6392C27.5615 28.772 29.3662 30.5151 31.54 30.5151H40.7068C41.9372 30.5151 43.0446 29.6743 43.3933 28.5054L44.8903 23.2965C44.9313 23.153 44.9108 23.0094 44.8083 22.9069C44.7263 22.7838 44.6032 22.7223 44.4597 22.7223Z" fill="#624DFF"/>
<path d="M46.0597 2.87104C44.2346 1.02537 41.8147 0 39.2308 0H30.146C29.0796 0 28.1157 0.717761 27.8286 1.74313L26.6802 5.72158C26.3726 6.76746 25.3882 7.50573 24.3013 7.50573H13.5554C11.3611 7.50573 9.55647 9.24886 9.53596 11.3816C9.53596 12.4275 9.94611 13.4119 10.6844 14.1501C11.4226 14.8884 12.407 15.2986 13.4529 15.2986H22.9273C24.1783 15.2986 25.2652 14.4578 25.6138 13.2683L26.7212 9.45394C27.0083 8.49009 27.9106 7.81335 28.9155 7.81335H37.6722C38.1644 7.81335 38.6565 8.01841 39.0052 8.36704C39.3538 8.71566 39.5179 9.14632 39.5179 9.59748C39.5179 10.0692 39.3333 10.4998 39.0052 10.8279C38.677 11.1766 38.2259 11.3611 37.7542 11.3611H29.7563C28.6899 11.3611 27.7261 12.0789 27.439 13.1043L26.2905 17.0622C25.9829 18.1081 25.0191 18.8464 23.9117 18.8464H3.89642C1.76364 18.8464 0 20.5895 0 22.7428C0 24.896 1.76364 26.6392 3.89642 26.6392H22.5377C23.7886 26.6392 24.896 25.8189 25.2242 24.6295L26.3316 20.7946C26.6187 19.8307 27.5005 19.1745 28.5054 19.1745H39.0667C44.3576 19.1745 48.7052 14.9499 48.8077 9.74104C48.8487 7.1571 47.8644 4.71671 46.0597 2.87104Z" fill="#624DFF"/>
</svg>
